# xmcd
#
# Track frame offsets: 
#        150
#        12009
#        26944
#        32508
#        49483
#        62733
#        72321
#        91518
#        103395
#        113317
#        138634
#        154703
#        169446
#        190075
#        224473
#        240332
#        265460
#        300608
#
# Disc length: 4330 seconds
#
# Revision: 1
# Processed by: cddbd v1.5.2PL0 Copyright (c) Steve Scherf et al.
# Submitted via: ExactAudioCopyFreeDBPlugin 1.0
#
DISCID=f910e812
DTITLE=Colin Lawson, Claire Thirion - Lefevre - A Revolutionary Tutor 
DTITLE=Clarinet Sonatas, Vol. 1
DYEAR=2007
DGENRE=Chamber Music
TTITLE0=Sonata no. 1 in C major - I. Allegro moderato
TTITLE1=Sonata no. 1 in C major - II. Adagio
TTITLE2=Sonata no. 1 in C major - III. Rondo
TTITLE3=Sonata no. 3 in G major - I. Allegro moderato
TTITLE4=Sonata no. 3 in G major - II. Adagio
TTITLE5=Sonata no. 3 in G major - III. Allegro
TTITLE6=Sonata no. 5 in D minor - I. Allegro ma non troppo
TTITLE7=Sonata no. 5 in D minor - II. Adagio
TTITLE8=Sonata no. 5 in D minor - III. Rondeau Pastorale
TTITLE9=Sonata no. 7 in A minor - I. Allegro ma non troppo
TTITLE10=Sonata no. 7 in A minor - II. Adagio
TTITLE11=Sonata no. 7 in A minor - III. Allegretto
TTITLE12=Sonata no. 9 in G major - I. Allegro moderato
TTITLE13=Sonata no. 9 in G major - II. Adagio
TTITLE14=Sonata no. 9 in G major - III. Allegretto Rondeau
TTITLE15=Sonata no. 11 in E minor - I. Allegro con espressione
TTITLE16=Sonata no. 11 in E minor - II. Adagio
TTITLE17=Sonata no. 11 in E minor - III. Allegro poco vivace
EXTD=
EXTT0=
EXTT1=
EXTT2=
EXTT3=
EXTT4=
EXTT5=
EXTT6=
EXTT7=
EXTT8=
EXTT9=
EXTT10=
EXTT11=
EXTT12=
EXTT13=
EXTT14=
EXTT15=
EXTT16=
EXTT17=
PLAYORDER=
